<svg id="Layer_2" data-name="Layer 2" xmlns="http://www.w3.org/2000/svg" xmlns:xlink="http://www.w3.org/1999/xlink" viewBox="0 0 1020.77 554.55">
  <defs>
    <style>
      .cls-1 {
        fill: url(#linear-gradient-2);
      }

      .cls-1, .cls-2, .cls-3 {
        opacity: .7;
      }

      .cls-4 {
        letter-spacing: 0em;
      }

      .cls-5 {
        fill: url(#New_Gradient_Swatch);
      }

      .cls-6 {
        fill: #ec008c;
        font-family: MontserratRoman-Medium, 'MontserratRoman Medium';
        font-size: 112.34px;
        font-variation-settings: ';
        font-weight: 500;
      }

      .cls-2 {
        fill: url(#linear-gradient);
      }

      .cls-7 {
        fill: #512e87;
        font-family: CocogooseProTrial-Italic, 'CocogooseProTrial Italic';
        font-size: 235.39px;
        font-style: italic;
      }

      .cls-3 {
        fill: url(#linear-gradient-3);
      }

      .cls-8 {
        fill: url(#New_Gradient_Swatch-2);
      }
    </style>
    <linearGradient id="linear-gradient" x1="93.1" y1="265.89" x2="320.73" y2="134.4" gradientTransform="translate(-24.44 26.79) rotate(-4.59) scale(1.01) skewX(1.34)" gradientUnits="userSpaceOnUse">
      <stop offset="0" stop-color="#ec008c" stop-opacity="0"/>
      <stop offset=".14" stop-color="#e4028b" stop-opacity=".05"/>
      <stop offset=".33" stop-color="#d0088b" stop-opacity=".18"/>
      <stop offset=".55" stop-color="#ae128a" stop-opacity=".4"/>
      <stop offset=".79" stop-color="#7f2088" stop-opacity=".7"/>
      <stop offset="1" stop-color="#512e87"/>
    </linearGradient>
    <linearGradient id="linear-gradient-2" x1="313.06" y1="277.31" x2="457" y2="277.31" gradientTransform="translate(-23.57 -22) rotate(-3.03) scale(1.03 1.05) skewX(-.75)" gradientUnits="userSpaceOnUse">
      <stop offset="0" stop-color="#512e87"/>
      <stop offset=".07" stop-color="#642887" stop-opacity=".87"/>
      <stop offset=".28" stop-color="#941989" stop-opacity=".56"/>
      <stop offset=".48" stop-color="#ba0e8a" stop-opacity=".32"/>
      <stop offset=".67" stop-color="#d5068b" stop-opacity=".14"/>
      <stop offset=".85" stop-color="#e6018b" stop-opacity=".04"/>
      <stop offset="1" stop-color="#ec008c" stop-opacity="0"/>
    </linearGradient>
    <linearGradient id="linear-gradient-3" x1="210.65" y1="328.31" x2="217.37" y2="483.02" gradientTransform="translate(70.54 -11.53) rotate(8.09) scale(.94 1) skewX(.39)" gradientUnits="userSpaceOnUse">
      <stop offset="0" stop-color="#ec008c" stop-opacity="0"/>
      <stop offset=".23" stop-color="#cc098a" stop-opacity=".2"/>
      <stop offset=".74" stop-color="#7d2088" stop-opacity=".71"/>
      <stop offset="1" stop-color="#512e87"/>
    </linearGradient>
    <linearGradient id="New_Gradient_Swatch" data-name="New Gradient Swatch" x1="0" y1="265.62" x2="468.73" y2="265.62" gradientUnits="userSpaceOnUse">
      <stop offset="0" stop-color="#ec008c"/>
      <stop offset="1" stop-color="#512e87"/>
    </linearGradient>
    <linearGradient id="New_Gradient_Swatch-2" data-name="New Gradient Swatch" x1="296.27" y1="194.76" x2="493.07" y2="315.64" gradientTransform="translate(-2.93 -10.55) rotate(.07)" xlink:href="#New_Gradient_Swatch"/>
  </defs>
  <g id="Layer_1-2" data-name="Layer 1">
    <text class="cls-7" transform="translate(472.6 407.85) scale(1.02 1)"><tspan x="0" y="0">En</tspan><tspan class="cls-4" x="246.45" y="0">k</tspan><tspan x="357.79" y="0">u</tspan></text>
    <text class="cls-6" transform="translate(459.3 526.47)"><tspan x="0" y="0" xml:space="preserve">B  e  a  u  t  y</tspan></text>
    <g>
      <path class="cls-2" d="m68.52,51.16c-1.6,1.77-3.9,4.05-5.96,6.63-13.24,16.57-19.73,38.93-18.33,68.12.22,4.52,1.59,7.25,5.56,10.44,16.94,13.63,32.6,18.47,47.49,17.77,16.87-.8,29.84-8.56,40.58-20.21,9.22-10,15.66-22.89,18.11-39.76,2.24-15.44.5-32.33-7.95-51.65-2.83-6.47-5.7-8.95-10.49-9.66-27.58-4.13-50.36,1.73-69.01,18.32Zm247.95,340.65c.29-.24.58-.48.87-.72-28.29-63.46-56.58-126.91-85.23-191.17-21.53,16.44-42.24,32.26-63.58,48.55,49.94,48.38,98.94,95.86,147.95,143.33ZM72.78,250.11c.14.61.28,1.23.42,1.84,75.55,44.29,151.11,88.58,226.66,132.87-1.2-2.44-2.53-4.02-3.94-5.38-43.28-41.93-86.55-83.87-129.9-125.62-2.15-2.07-5.29-3.45-7.4-3.48-21.22-.33-42.32-.33-63.45-.38-7.49-.02-14.94.1-22.4.15ZM248.78,104.79c-.4-.13-.8-.25-1.2-.38-.19.73-.47,1.41-.57,2.21-3.56,28.4-7.16,56.77-10.52,85.3-.27,2.33.55,5.93,1.8,8.76,22.97,51.87,46.09,103.72,69.19,155.57,2.18,4.9,4.48,9.77,6.73,14.65h1.1c-22.17-88.72-44.35-177.42-66.52-266.12Zm-6.03-19.36c-1.83-.51-2.6-.82-3.31-.92-24.77-3.62-49.53-7.22-74.28-10.8-3.93-.57-5.39,4.08-2.86,9.17.85,1.71,2.08,3.3,3.15,4.93,18.41,28.1,36.81,56.2,55.26,84.27,2.78,4.22,5.82,8.24,9.48,13.4,4.22-33.62,8.35-66.43,12.57-100.05Zm-83.35,157.27c-1.92-2.49-2.77-3.63-3.66-4.74-17.09-21.31-34.41-42.36-51.19-64.04-7.32-9.46-14.04-16.76-22.07-15.42-1.56.26-3.4,1.22-3.66,2.93-3.88,25.12-7.52,50.42-11.2,75.69-.2,1.36-.19,2.88-.33,5.38,30.96.07,61.12.13,92.11.2Zm-13.32-101.29c6.71,33.84,13.23,66.68,20.04,101.03,20.91-16,40.81-31.22,61.5-47.06-27.68-18.32-54.3-35.94-81.54-53.98Zm-47.95,18.8c21.18,26.3,41.14,51.09,61.11,75.89.31-.1.61-.21.92-.31-6.25-31.45-12.49-62.89-18.74-94.34-.48-.28-.96-.56-1.44-.84-10.82,11.58-24.49,18.1-41.85,19.61Zm123.49,24.57c.16-.38.32-.76.48-1.13-19.95-30.45-39.89-60.89-60.71-92.67-1.9,18.27-7.61,31.58-15.74,43.55,26.08,17.25,51.02,33.75,75.96,50.26Zm-160.43,48.45c.62.3,1.23.59,1.85.89,3.78-25.81,7.55-51.62,11.26-76.98-9.94-6.17-19.04-11.81-28.97-17.97,5.27,31.25,10.56,62.66,15.85,94.06ZM232.17,78c-.09-.54-.17-1.08-.26-1.62-27.26-18.03-54.28-30.35-81-41.25,3.62,11.27,6.93,21.56,10.48,32.59,23.38,3.4,47.09,6.84,70.79,10.28Z"/>
      <path class="cls-1" d="m401.05,116.52c-1.54-.3-3.63-.83-5.76-1.11-13.68-1.8-27.18,2.48-40.49,13.88-2.06,1.76-2.76,3.56-2.56,7.06.88,14.91,5.4,25.88,12.22,34.39,7.74,9.65,17.09,14.47,27.33,16.57,8.79,1.81,17.75.93,26.86-3.74,8.34-4.27,15.64-11.41,21.18-23.38,1.85-4.01,1.78-6.6.04-9.68-10.05-17.73-22.77-29.02-38.82-33.99Zm-53.88,268.15c.24.08.48.17.72.25,17.94-39.64,35.89-79.27,54.06-119.41-17.23-6.72-33.8-13.19-50.88-19.85-1.32,46.92-2.61,92.96-3.9,139.01Zm-37.66-193.28c-.23.31-.46.61-.7.92,11.8,60.52,23.6,121.04,35.4,181.56.64-1.59.81-2.94.85-4.27,1.14-40.66,2.29-81.33,3.32-121.97.05-2.02-.66-4.36-1.56-5.61-9.09-12.61-18.29-25.04-27.48-37.49-3.26-4.42-6.56-8.76-9.84-13.14Zm143.89,49.68c-.11-.28-.23-.56-.34-.84-.43.15-.88.24-1.3.47-15.1,8.19-30.21,16.34-45.29,24.69-1.23.68-2.59,2.47-3.39,4.23-14.74,32.31-29.4,64.69-44.07,97.07-1.39,3.06-2.71,6.18-4.06,9.27l.49.64c32.66-45.18,65.31-90.35,97.97-135.53Zm5.9-8.53c-.55-1.26-.74-1.82-1-2.28-9.07-15.89-18.14-31.78-27.23-47.64-1.44-2.52-4.3-1.7-5.62,1.64-.44,1.12-.67,2.42-.98,3.64-5.38,21.01-10.77,42.02-16.12,63.05-.8,3.16-1.4,6.41-2.26,10.43,17.88-9.69,35.33-19.14,53.22-28.83Zm-110.03,6.85c.35-2.03.52-2.95.67-3.87,2.72-17.78,5.21-35.6,8.24-53.33,1.32-7.74,1.88-14.33-2.26-18.58-.8-.83-2.06-1.56-2.99-1.1-13.68,6.81-27.34,13.83-41,20.82-.74.38-1.46.93-2.71,1.75,13.46,18.25,26.58,36.03,40.06,54.3Zm43.1-45.71c-13.22,16.21-26.05,31.94-39.47,48.39,16.75,6.52,32.69,12.72,49.26,19.16-3.32-22.93-6.52-44.98-9.79-67.55Zm-30.45-20.23c-3.32,21.99-6.44,42.72-9.57,63.46.18.14.37.28.55.43,12.28-15.07,24.56-30.13,36.85-45.2-.08-.38-.15-.77-.23-1.15-10.24-2.17-19.31-7.86-27.6-17.54Zm42.11,81.6c.25-.04.5-.08.75-.12,5.83-22.77,11.66-45.54,17.75-69.3-9.55,5.5-18.39,6.95-27.64,6.5,3.14,21.6,6.14,42.26,9.13,62.92Zm-93.05-76.91l.38,1.41c13.96-7.12,27.92-14.25,41.64-21.24-1.39-8.08-2.66-15.49-4.05-23.56-12.61,14.42-25.29,28.91-37.97,43.4Zm147.26,45.48c.22-.25.44-.49.66-.74-3.28-22.58-9.18-42.95-15.63-62.63-3.8,6.21-7.27,11.89-10.98,17.97,8.57,15,17.26,30.2,25.95,45.4Z"/>
      <path class="cls-3" d="m90.92,412.65c-.07,1.81-.27,4.3-.24,6.79.19,15.95,5.87,30.53,17.98,43.53,1.87,2.01,3.6,2.47,6.75,1.57,13.42-3.86,22.78-11.11,29.6-20.53,7.73-10.67,10.86-22.26,11.41-34.35.47-10.37-1.52-20.42-6.97-29.93-4.99-8.7-12.44-15.66-24.05-19.68-3.89-1.35-6.23-.77-8.79,1.81-14.76,14.86-23.32,31.53-25.7,50.79Zm250.62,10.15c.04-.29.09-.58.13-.87-38.37-12.88-76.74-25.77-115.6-38.82-3.81,20.94-7.48,41.08-11.26,61.84,42.78-7.48,84.75-14.81,126.73-22.15Zm-170.48,79.95c.31.21.62.41.92.62,53.38-25.04,106.76-50.08,160.14-75.13-1.53-.43-2.78-.37-3.99-.15-37.07,6.48-74.14,12.95-111.18,19.55-1.84.33-3.87,1.59-4.89,2.86-10.24,12.79-20.3,25.66-30.39,38.52-3.58,4.56-7.08,9.16-10.62,13.74Zm25.98-173.65c-.24.18-.48.37-.72.55.2.47.33.95.6,1.4,9.44,15.66,18.85,31.33,28.44,46.93.78,1.27,2.59,2.48,4.3,3.06,31.29,10.63,62.64,21.16,93.99,31.69,2.96,1,5.97,1.91,8.95,2.86l.52-.68c-45.36-28.61-90.71-57.21-136.07-85.82Zm-8.53-5.1c-1.07.87-1.56,1.2-1.94,1.58-13.22,13.39-26.44,26.78-39.64,40.18-2.09,2.13-.97,5.23,2.24,6.1,1.07.29,2.28.3,3.43.42,19.79,2.12,39.58,4.25,59.38,6.32,2.98.31,6.01.37,9.77.59-11.17-18.54-22.07-36.64-33.25-55.19Zm20.84,124.2c-1.89-.01-2.75-.03-3.6-.02-16.51.3-33.01.87-49.51.8-7.2-.03-13.26.6-16.57,6.14-.64,1.07-1.14,2.65-.6,3.62,8,14.3,16.19,28.54,24.35,42.78.44.77,1.04,1.48,1.95,2.76,14.78-18.85,29.18-37.22,43.98-56.08Zm-47.23-40.42c16.47,11.98,32.46,23.6,49.18,35.76,3.69-20.35,7.2-39.72,10.85-59.86-20.38,8.18-39.97,16.04-60.03,24.09Zm-14.32,38.61c20.41-.43,39.65-.83,58.89-1.23.1-.24.21-.47.31-.71-15.31-11.13-30.62-22.25-45.93-33.38-.34.16-.68.32-1.01.48-.61,12.1-4.57,23.53-12.26,34.84Zm68.49-63.65c-.07-.28-.14-.56-.21-.83-21.45-2.3-42.89-4.59-65.28-6.99,6.26,9.84,8.76,19.64,9.58,30.28,19.2-7.71,37.55-15.09,55.91-22.46Zm-57.46,120.86l1.23-.71c-8.32-14.56-16.65-29.13-24.82-43.43-7.16,3.13-13.71,6-20.86,9.13,14.77,11.63,29.61,23.32,44.45,35.01Zm21.72-176.68c-.25-.2-.51-.41-.76-.61-20.06,8.06-37.77,18.69-54.78,29.81,6.15,3.14,11.76,6.01,17.77,9.09,12.48-12.65,25.12-25.47,37.77-38.29Z"/>
      <path class="cls-5" d="m468.73,416.67c-2.29-1.23-6.79-3.22-12.62-3.03-2.67.09-4.92.62-6.65,1.18.19.96.93,5.13-1.76,9.19-2.27,3.42-5.56,4.63-7.16,5.2-4.51,1.6-8.5.72-10.15.25-2.46,2.37-6.38,5.62-11.86,8.05-8.85,3.93-13.79,2.39-27.53,4.88-8.4,1.52-14.56,3.82-18.69,5.38-3.7,1.4-10.96,4.36-23.15,11.84-13.22,8.11-22.63,15.64-26.38,18.69-24.5,19.88-48.95,44.02-57.85,52.92,8.92-15.35,20.56-32.68,35.69-50.46,9.62-11.31,19.22-21.11,28.31-29.54-43.55,16.62-75.7,33.15-97.49,45.55-12.22,6.95-24.4,14.48-43.42,18.57-10.28,2.21-38.66,8.3-68.32-5.24-34.48-15.74-46.72-46.65-48.62-51.67-19.07-50.52,18.35-95.7,23.38-101.58,20.69-24.16,46.54-33.89,58.46-37.58-16.77-4.65-43.58-14.22-70.77-34.66-7.93-5.96-24.06-18.99-39.69-39.51-8.72-11.45-27.23-38.3-35.45-74.32C1.66,147.3-14.06,78.46,31.29,33.38,74.31-9.38,146.78-5.39,191.87,13.9c48.63,20.8,71.97,62.2,78.6,74.35,13.28,24.34,16.9,45.57,18.46,54.6,9.86,57.16,28.25,147.43,52.92,266.27,9.51-3.1,20.86-7.84,32.62-15.27,27.4-17.3,42.12-39.73,49.23-52.84-4.78,11.94-15.19,33.2-36.92,52.84-18.81,17-38.19,25.64-50.21,29.96-14.98-60.06-70.23-281.5-72.86-291.18-.72-2.64-1.52-5.23-1.52-5.23-1.17-3.8-2.72-8.3-4.74-13.25,0,0-6.49-16.25-15.49-29.05-31.01-44.12-83.84-51.42-88.13-52-11.32-1.53-69.28-7.86-104.45,30.77-31.02,34.07-22.82,79.5-18.48,103.57,12.9,71.48,70.1,111.94,84.5,122.13,25.06,17.72,49.19,27.06,65.22,32.06-8.41.8-41.39,4.88-66.46,31.71-5.23,5.6-22.73,24.89-24.67,54.38-.22,3.28-1.34,24.96,10.78,47.07,4.1,7.48,8.45,12.64,10,14.43,10.04,11.54,20.99,17.49,26.3,20.27,8.76,4.62,17.18,7.1,24.7,8.33,12.21,2,21.7.6,28.52-.46,9.38-1.45,25.07-5.08,42.53-15.43,48.76-22.27,97.52-44.53,146.29-66.8,9.37-4.28,14.82-6.61,26.02-10.66.74-.27,6.37-2.28,14.08-3.92,9.76-2.08,14.08-1.68,17.61-.63,2.71.81,4.78,1.96,6.08,2.78,2.77-.16,6.33-.81,9.62-3.04,4.88-3.31,7.26-8.67,7.15-8.36-.79,2.18-2.51,5.95-6.2,9.47-2.68,2.56-5.43,4.05-7.36,4.92.56.7,1.19,1.63,1.75,2.79.5,1.02.77,1.95.94,2.51.15.49.25.91.33,1.21,2.06-.23,4.62-.31,7.5.06,5.67.72,9.99,2.83,12.62,4.41Z"/>
      <path class="cls-8" d="m354.26,399.11c-.54.65,5.14-6.87,59.79-78.75,32.36-42.58,45.99-60.94,52.34-90.96,6.06-28.63,1.63-49.5.4-54.82-1.71-7.38-5.21-21.85-15.12-35.31-19.21-26.08-54.72-37.77-81.95-27.02-13.66,5.39-23.59,15.78-42.44,35.49-8.45,8.84-14.99,16.85-19.49,22.67,15.58-20.17,28.34-44.46,48.33-60.54,9.55-7.68,35.45-24.3,67.29-17.11,5.75,1.3,26.91,6.44,43.45,27.6,21.02,26.9,19.39,60.52,19.04,72.61-1.37,47.44-26.4,79.55-34.69,89.35-32.31,38.93-64.63,77.87-96.94,116.8Z"/>
    </g>
  </g>
</svg>